<svg xmlns="http://www.w3.org/2000/svg" width="32" height="32" viewBox="0 0 32 32" fill="none">
  <rect width="32" height="32" rx="4" fill="#215F12"/>
  <path d="M16 6C13.8 6 11.7 6.8 10 8.3C8.3 9.8 7.2 11.8 7 14C6.8 16.2 7.5 18.4 9 20.1C10.5 21.8 12.5 22.9 14.7 23.1C15.1 23.1 15.6 23.2 16 23.2C18.2 23.2 20.3 22.4 22 20.9C23.7 19.4 24.8 17.4 25 15.2C25.2 13 24.5 10.8 23 9.1C21.5 7.4 19.5 6.3 17.3 6.1C16.9 6 16.4 6 16 6Z" fill="#AC954C"/>
  <path d="M16 8C14.4 8 12.9 8.6 11.7 9.7C10.5 10.8 9.7 12.3 9.6 14C9.5 15.6 10 17.2 11.1 18.4C12.2 19.6 13.7 20.4 15.4 20.5C15.6 20.5 15.8 20.5 16 20.5C17.6 20.5 19.1 19.9 20.3 18.8C21.5 17.7 22.3 16.2 22.4 14.5C22.5 12.9 22 11.3 20.9 10.1C19.8 8.9 18.3 8.1 16.6 8C16.4 8 16.2 8 16 8Z" fill="#215F12"/>
  <path d="M16 26C16.8284 26 17.5 25.3284 17.5 24.5C17.5 23.6716 16.8284 23 16 23C15.1716 23 14.5 23.6716 14.5 24.5C14.5 25.3284 15.1716 26 16 26Z" fill="#AC954C"/>
  <path d="M16 10C15.4 10 14.8 10.2 14.3 10.6C13.8 11 13.5 11.6 13.4 12.2C13.3 12.8 13.5 13.5 13.9 14C14.3 14.5 14.9 14.8 15.5 14.9C15.7 14.9 15.8 14.9 16 14.9C16.6 14.9 17.2 14.7 17.7 14.3C18.2 13.9 18.5 13.3 18.6 12.7C18.7 12.1 18.5 11.4 18.1 10.9C17.7 10.4 17.1 10.1 16.5 10C16.3 10 16.2 10 16 10Z" fill="#AC954C"/>
</svg>
